<svg id="Layer_1" data-name="Layer 1" xmlns="http://www.w3.org/2000/svg" viewBox="0 0 550 785.29"><defs><style>.cls-1{fill:#21409a;}.cls-2{fill:#f26522;}.cls-3{fill:none;stroke:#231f20;stroke-miterlimit:10;}</style></defs><path class="cls-1" d="M499.9,784.29A156.87,156.87,0,0,1,343.05,627.43l78.43-156.86A156.87,156.87,0,0,1,578.33,627.43Z" transform="translate(-28.83 0.5)"/><path class="cls-2" d="M499.9,156.86,186.19,784.29A156.87,156.87,0,0,1,29.33,627.43L343.05,0A156.87,156.87,0,0,1,499.9,156.86Z" transform="translate(-28.83 0.5)"/><line class="cls-3" x1="0.5" y1="627.93" x2="314.21" y2="0.5"/><line class="cls-3" x1="157.36" y1="784.79" x2="471.07" y2="157.36"/><line class="cls-3" x1="314.21" y1="627.93" x2="392.64" y2="471.07"/><line class="cls-3" x1="471.07" y1="784.79" x2="549.5" y2="627.93"/><path class="cls-3" d="M499.9,784.29A156.87,156.87,0,0,1,343.05,627.43" transform="translate(-28.83 0.5)"/><path class="cls-3" d="M343.05,0A156.87,156.87,0,0,1,499.9,156.86" transform="translate(-28.83 0.5)"/><path class="cls-3" d="M186.19,784.29A156.87,156.87,0,0,1,29.33,627.43" transform="translate(-28.83 0.5)"/><path class="cls-3" d="M421.48,470.57A156.87,156.87,0,0,1,578.33,627.43" transform="translate(-28.83 0.5)"/></svg>


